<svg xmlns="http://www.w3.org/2000/svg" viewBox="0 0 37.23 61.29" width="37.23" height="61.29"><defs><style>.a{fill:#4866fe}.b{fill:#2249d6}.c{fill:url(#a)}.d{fill:#b7c3fe}</style><linearGradient id="a" x1=".06" x2=".96" y1=".03" y2="1" gradientUnits="objectBoundingBox"><stop offset="0" stop-color="#6981fc"/><stop offset="1" stop-color="#4866fe"/></linearGradient></defs><path d="M7.939 0H29.28v61.294H7.939z" class="a"/><path d="M35.044 49.317H2.186A2.183 2.183 0 0 1 0 47.131V12.074A2.173 2.173 0 0 1 2.186 9.9h32.858a2.181 2.181 0 0 1 2.186 2.174v35.069a2.189 2.189 0 0 1-2.186 2.174z" class="b"/><path d="M33.229 46.467H3.989a1.307 1.307 0 0 1-1.3-1.3V14.039a1.307 1.307 0 0 1 1.3-1.3h29.24a1.307 1.307 0 0 1 1.3 1.3v31.127a1.292 1.292 0 0 1-1.3 1.301z" class="c"/><path d="M18.609 41.383A10.723 10.723 0 1 1 29.332 30.66a10.734 10.734 0 0 1-10.723 10.723zm0-20.231a9.5 9.5 0 1 0 9.5 9.5 9.509 9.509 0 0 0-9.5-9.5z" class="d"/><path d="M25.242 31.322h-7.247v-6.51h1.228v5.282h6.019z" class="d"/></svg>