<svg xmlns="http://www.w3.org/2000/svg" viewBox="0 0 57 57" width="57" height="57"><defs><style>.a{fill:none}.b{fill:url(#a)}</style><linearGradient id="a" x1=".06" x2=".96" y1=".03" y2="1" gradientUnits="objectBoundingBox"><stop offset="0" stop-color="#6981fc"/><stop offset="1" stop-color="#4866fe"/></linearGradient></defs><path d="M42.75 10.728v3.52l-2.85 5.7 2.85 2.85v2.85l-5.7 2.85-2.85 2.9 2.85 2.8 2.85 2.85 2.85 5.7 1.864 1.864a22.754 22.754 0 0 0-1.864-33.884zM28.5 39.898v-5.7h-5.7l-2.85-2.85H17.1l-2.85-5.7 2.85-5.7 2.85-2.85 2.85-2.85 2.85-5.7V5.897A22.823 22.823 0 0 0 5.897 25.65H8.55l2.85 5.7v5.7l5.7 5.7 2.85 2.85v4.021a22.214 22.214 0 0 0 3.178 1.012l2.519-5.033z" class="a"/><path d="M28.5 0A28.5 28.5 0 1 0 57 28.5 28.532 28.532 0 0 0 28.5 0zm-8.55 49.621V45.6l-2.85-2.85-5.7-5.7v-5.7l-2.85-5.7H5.9A22.823 22.823 0 0 1 25.65 5.9v2.65l-2.85 5.7-2.85 2.85-2.85 2.85-2.85 5.7 2.85 5.7h2.85l2.85 2.85h5.7v5.7l-2.85 5.7-2.519 5.036a22.59 22.59 0 0 1-3.181-1.015zm24.664-5.007L42.75 42.75l-2.85-5.7-2.85-2.85-2.85-2.8 2.85-2.9 5.7-2.85V22.8l-2.85-2.85 2.85-5.7v-3.52a22.754 22.754 0 0 1 1.864 33.884z" class="b"/></svg>