<svg xmlns="http://www.w3.org/2000/svg" viewBox="0 0 87.96 87.96" width="87.96" height="87.96"><defs><style>.a{fill:#f35045}</style></defs><path d="M55.128 71.468c.687.993 1.107.916 1.641.687s28.022-9.506 28.862-9.811.573-.573.306-.993-9.43-12.866-9.888-13.591-.687-.573-1.413-.344l-29.139 7.582s8.944 15.477 9.631 16.47zM87.96 58.794V44.222l-9.062 2.413a6161.56 6161.56 0 0 1 9.063 12.16zm-9.09-30.1c-.449.1-10.393 1.9-11.005 1.98s-.408.429-.163.776l8.75 12.006s10.7-2.654 11.353-2.8l.155-.037v-1.59c-1.945-2.466-7.243-9.18-7.7-9.808-.551-.748-.94-.625-1.389-.523z" class="a"/><path d="M16.306 9.839c2.153-.1 2.35.392 3.3 1.795l23.762 39.734 29.884-7.159c-1.656-2.347-9.172-13-9.9-14.021-.816-1.143.021-1.674 1.348-1.9S77.462 26.145 78.442 26s1.756-.49 3.349 1.429c.815.982 3.578 4.422 6.17 7.647V16.493a15.887 15.887 0 0 0-4.839-11.654A15.887 15.887 0 0 0 71.468 0H16.493A15.887 15.887 0 0 0 4.839 4.839a16.2 16.2 0 0 0-3.956 6.2c5.387-.443 13.916-1.134 15.423-1.2z" class="a"/><path d="M57.824 76.816c-2.52.763-3.65 1.142-5.291-1.148-1.229-1.716-7.878-13.69-11.137-19.593-6.169 1.616-17.46 4.562-20.715 5.345a4.01 4.01 0 0 1-5.057-2.316C15.257 58.28 5.94 38.194 0 25.306v46.162a15.887 15.887 0 0 0 4.839 11.654 15.887 15.887 0 0 0 11.654 4.834h54.975a16.521 16.521 0 0 0 16.493-16.493v-5.417c-6.748 2.468-28.44 10.256-30.137 10.77z" class="a"/><path d="M20.757 56.793c.893-.2 17.631-4.21 17.988-4.287s.587-.281.2-.944-22.306-38.514-22.306-38.514c-.2-.347-.145-.463-.695-.434-.49.026-12.9 1.133-15.77 1.373a17.537 17.537 0 0 0-.158 1.832c2.915 5.97 19.655 40.492 19.746 40.769.1.306.1.409 1 .2z" class="a"/></svg>