<svg xmlns="http://www.w3.org/2000/svg" viewBox="0 0 205 41.34" width="205" height="41.34"><defs><style>.a{fill:#9b5c8f;fill-rule:evenodd}.b{fill:#fff}</style></defs><path d="M6.445 0h56.523a6.47 6.47 0 0 1 6.473 6.473v21.576a6.47 6.47 0 0 1-6.473 6.473H42.701l2.782 6.813-12.236-6.813H6.473a6.47 6.47 0 0 1-6.472-6.473V6.473A6.446 6.446 0 0 1 6.445 0z" class="a"/><path d="M3.464 5.876a2.285 2.285 0 0 1 1.789-.88 2.074 2.074 0 0 1 2.47 2.044q1.32 8.9 2.867 15.075l6.217-11.838a2.7 2.7 0 0 1 2.129-1.7c1.249-.085 2.016.71 2.328 2.385a53.036 53.036 0 0 0 2.7 9.709q1.107-10.816 3.747-15.614a2.181 2.181 0 0 1 1.874-1.249 2.466 2.466 0 0 1 1.789.568 2.224 2.224 0 0 1 .88 1.618 2.464 2.464 0 0 1-.284 1.363c-1.107 2.044-2.016 5.479-2.754 10.249a52.867 52.867 0 0 0-.795 10.816 3.369 3.369 0 0 1-.341 1.874 1.829 1.829 0 0 1-1.5 1.022 2.854 2.854 0 0 1-2.243-1.05q-3.96-4.046-6.274-12.094-2.768 5.451-4.088 8.176c-1.675 3.208-3.094 4.855-4.287 4.94-.767.057-1.419-.6-1.987-1.959Q5.529 23.753 3.017 7.783a2.535 2.535 0 0 1 .447-1.907zm61.037 4.458a6.538 6.538 0 0 0-4.542-3.293 7.451 7.451 0 0 0-1.533-.17c-2.725 0-4.94 1.419-6.672 4.258a15.043 15.043 0 0 0-2.214 8.006 10.992 10.992 0 0 0 1.363 5.621 6.538 6.538 0 0 0 4.542 3.293 7.452 7.452 0 0 0 1.533.17c2.754 0 4.968-1.419 6.672-4.258a15.213 15.213 0 0 0 2.214-8.034 10.741 10.741 0 0 0-1.363-5.593zm-3.577 7.864a7.51 7.51 0 0 1-2.158 4.2 2.729 2.729 0 0 1-2.3.908c-.681-.142-1.249-.738-1.675-1.845a7.206 7.206 0 0 1-.511-2.583 9.873 9.873 0 0 1 .2-2.072 9.179 9.179 0 0 1 1.5-3.378c.937-1.391 1.93-1.959 2.952-1.76.681.142 1.249.738 1.675 1.845a7.205 7.205 0 0 1 .511 2.583 12.274 12.274 0 0 1-.2 2.1zm-14.223-7.864a6.6 6.6 0 0 0-4.542-3.293 7.452 7.452 0 0 0-1.533-.17c-2.725 0-4.94 1.419-6.671 4.258a15.043 15.043 0 0 0-2.214 8.006 10.992 10.992 0 0 0 1.363 5.621 6.538 6.538 0 0 0 4.542 3.293 7.452 7.452 0 0 0 1.533.17c2.754 0 4.968-1.419 6.672-4.258a15.212 15.212 0 0 0 2.214-8.034 10.741 10.741 0 0 0-1.363-5.593zm-3.577 7.864a7.51 7.51 0 0 1-2.158 4.2 2.729 2.729 0 0 1-2.3.908c-.681-.142-1.249-.738-1.675-1.845a7.2 7.2 0 0 1-.511-2.583 9.872 9.872 0 0 1 .2-2.072 9.179 9.179 0 0 1 1.5-3.378c.937-1.391 1.93-1.959 2.953-1.76.681.142 1.249.738 1.675 1.845a7.205 7.205 0 0 1 .511 2.583 9.96 9.96 0 0 1-.2 2.1z" class="b"/><path d="M76.623 10.079a9.6 9.6 0 0 0-2.839 7.154 10.287 10.287 0 0 0 2.811 7.523 9.858 9.858 0 0 0 7.353 2.867 10.7 10.7 0 0 0 2.952-.454v-4.6a9.554 9.554 0 0 1-2.583.426 4.648 4.648 0 0 1-3.605-1.5 6.742 6.742 0 0 1-.028-8.091 4.25 4.25 0 0 1 3.378-1.561 10.6 10.6 0 0 1 2.839.426v-4.6a11.858 11.858 0 0 0-3.094-.369 9.669 9.669 0 0 0-7.184 2.779zm19.7-2.811a7.636 7.636 0 0 0-6.132 2.612c-1.476 1.732-2.186 4.173-2.186 7.3 0 3.378.738 5.962 2.186 7.75a7.722 7.722 0 0 0 6.359 2.7 7.547 7.547 0 0 0 6.217-2.7c1.448-1.789 2.186-4.315 2.186-7.552s-.738-5.735-2.214-7.495a8.038 8.038 0 0 0-6.414-2.615zm2.243 14.762a2.521 2.521 0 0 1-2.243 1.192 2.283 2.283 0 0 1-2.072-1.192c-.483-.795-.71-2.385-.71-4.8 0-3.719.937-5.564 2.839-5.564 1.987 0 3.009 1.874 3.009 5.649-.026 2.331-.31 3.921-.821 4.715zm20.418-14.223l-1.022 4.344a100.238 100.238 0 0 0-.738 3.407l-.568 3.009c-.539-3.009-1.277-6.586-2.214-10.76h-6.586l-2.47 19.333h4.94l1.334-13.315 3.378 13.315h3.52l3.236-13.286 1.391 13.286h5.167L125.74 7.807zm23.648 0l-1.022 4.344a102.722 102.722 0 0 0-.738 3.407l-.568 3.009c-.539-3.009-1.278-6.586-2.214-10.76h-6.586l-2.47 19.333h4.94l1.334-13.315 3.378 13.315h3.52l3.208-13.286 1.391 13.286h5.167L149.36 7.807zm16.068 11.7h4.627v-4H158.7v-3.549h5.337V7.842h-10.564v19.326h10.589v-4.116h-5.366zm20.071-3.066a5.167 5.167 0 0 0 .823-2.725 5.09 5.09 0 0 0-2.129-4.315 9.63 9.63 0 0 0-5.82-1.59h-6.075v19.333h5.224v-8.8h.085l4.23 8.8h5.508l-4.173-8.716a5.161 5.161 0 0 0 2.324-1.99zm-8.006-.312v-4.6a4.775 4.775 0 0 1 2.669.625 2.208 2.208 0 0 1 .795 1.93c-.003 1.332-1.167 2.013-3.467 2.042zm11.9-6.047a9.6 9.6 0 0 0-2.839 7.154 10.287 10.287 0 0 0 2.811 7.523 9.858 9.858 0 0 0 7.353 2.867 10.7 10.7 0 0 0 2.953-.454v-4.6a9.554 9.554 0 0 1-2.583.426 4.648 4.648 0 0 1-3.605-1.5 6.742 6.742 0 0 1-.028-8.091 4.25 4.25 0 0 1 3.378-1.561 10.6 10.6 0 0 1 2.839.426v-4.6a11.857 11.857 0 0 0-3.094-.369 9.712 9.712 0 0 0-7.193 2.776zm16.948 12.917v-3.52h4.628v-4h-4.628V11.93h5.366V7.814H194.41v19.333h10.589v-4.116h-5.394z"/></svg>