<svg xmlns="http://www.w3.org/2000/svg" viewBox="0 0 111.46 100.21" width="111.46" height="100.21"><defs><style>.a{fill:#fff}.b{fill:#53c1de}</style></defs><path d="M0 49.925c0 8.418 8.22 16.275 21.178 20.7-2.588 13.027-.463 23.527 6.631 27.618 7.292 4.206 18.155 1.295 28.466-7.719 10.051 8.649 20.208 12.053 27.3 7.95 7.285-4.217 9.5-15.429 6.841-28.863 13.5-4.462 21.047-11.163 21.047-19.691 0-8.222-8.234-15.335-21.018-19.736 2.863-13.989.437-24.234-6.951-28.495-7.123-4.107-17.4-.527-27.6 8.348C45.283.622 35.109-2.254 27.728 2.015c-7.116 4.119-9.147 14.81-6.551 28.078C8.657 34.462 0 41.736 0 49.925z" class="a"/><path d="M87.733 34.559q-1.58-.542-3.187-1 .266-1.082.492-2.173c2.412-11.709.835-21.141-4.551-24.247-5.164-2.978-13.609.127-22.138 7.549q-1.261 1.1-2.465 2.262-.806-.773-1.64-1.515c-8.939-7.937-17.9-11.281-23.279-8.167-5.159 2.986-6.687 11.854-4.515 22.951q.324 1.648.732 3.279a65.93 65.93 0 0 0-3.664 1.152c-10.48 3.654-17.173 9.38-17.173 15.319 0 6.135 7.184 12.288 18.1 16.019q1.328.452 2.677.837-.438 1.756-.778 3.534c-2.07 10.9-.453 19.561 4.692 22.529 5.314 3.064 14.233-.085 22.919-7.677q1.03-.9 2.066-1.9 1.3 1.258 2.676 2.441c8.413 7.239 16.721 10.162 21.862 7.187 5.309-3.074 7.035-12.374 4.794-23.69q-.256-1.3-.594-2.646.94-.277 1.841-.575c11.348-3.76 18.731-9.838 18.731-16.055 0-5.961-6.908-11.726-17.6-15.406z" class="b"/><path d="M85.273 62.006c-.541.179-1.1.352-1.662.52a99.25 99.25 0 0 0-5.013-12.538 99.206 99.206 0 0 0 4.818-12.357c1.012.294 2 .6 2.943.929 9.16 3.153 14.747 7.815 14.747 11.407 0 3.827-6.034 8.794-15.832 12.041zm-4.065 8.056a35.807 35.807 0 0 1 .473 13.064c-.59 3.178-1.775 5.3-3.241 6.145-3.12 1.806-9.791-.541-16.985-6.732q-1.237-1.065-2.489-2.269a99.372 99.372 0 0 0 8.3-10.536 98.712 98.712 0 0 0 13.405-2.067q.3 1.222.536 2.395zm-41.113 18.9c-3.048 1.076-5.475 1.107-6.942.261-3.123-1.8-4.42-8.753-2.65-18.077q.316-1.653.723-3.286a99.435 99.435 0 0 0 13.338 1.928 102.9 102.9 0 0 0 8.5 10.5q-.921.891-1.886 1.737a35.814 35.814 0 0 1-11.081 6.937zm-14.279-26.98a35.823 35.823 0 0 1-11.545-6.133c-2.455-2.1-3.695-4.19-3.695-5.884 0-3.6 5.374-8.2 14.336-11.326q1.687-.586 3.407-1.072a101.414 101.414 0 0 0 4.825 12.5 102.955 102.955 0 0 0-4.885 12.679q-1.231-.352-2.444-.765zm4.786-32.58c-1.861-9.508-.625-16.679 2.484-18.479 3.312-1.917 10.634.817 18.352 7.669.493.438.989.9 1.485 1.371a101.333 101.333 0 0 0-8.432 10.436 103.323 103.323 0 0 0-13.21 2.053q-.379-1.516-.68-3.05zm42.7 10.543q-1.452-2.507-3.01-4.95c3.159.4 6.184.929 9.026 1.577a90.2 90.2 0 0 1-3.168 8.524q-1.372-2.6-2.847-5.151zM55.888 22.988a90.432 90.432 0 0 1 5.825 7.032q-5.846-.276-11.7 0a92.062 92.062 0 0 1 5.875-7.032zM38.364 39.975q-1.457 2.526-2.794 5.119a93.367 93.367 0 0 1-3.145-8.565 95.409 95.409 0 0 1 8.974-1.541q-1.576 2.458-3.035 4.987zm3.125 25.269a90.037 90.037 0 0 1-9.122-1.467 95.12 95.12 0 0 1 3.208-8.739q1.343 2.594 2.806 5.122 1.493 2.578 3.108 5.083zm14.516 12c-2-2.163-4-4.555-5.956-7.127q2.843.112 5.791.112 3.027 0 5.975-.133a89.926 89.926 0 0 1-5.81 7.146zm20.183-22.356a89.807 89.807 0 0 1 3.324 8.708 89.743 89.743 0 0 1-9.231 1.572q1.569-2.488 3.039-5.037 1.494-2.59 2.871-5.245zm-6.534 3.132q-2.249 3.907-4.749 7.662c-2.937.21-5.972.318-9.065.318s-6.077-.1-8.962-.283q-2.563-3.744-4.838-7.674-2.262-3.906-4.223-7.976 1.954-4.068 4.21-7.98 2.254-3.91 4.8-7.641a119.561 119.561 0 0 1 18.043.003q2.518 3.722 4.769 7.615t4.267 7.942q-1.982 4.082-4.252 8.013zm8.727-47.222c3.314 1.912 4.6 9.621 2.521 19.73q-.2.988-.445 1.968a101.3 101.3 0 0 0-13.235-2.091 99.336 99.336 0 0 0-8.371-10.443q1.112-1.072 2.276-2.088c7.308-6.36 14.138-8.871 17.25-7.076z" class="a"/><path d="M55.84 41.126a8.839 8.839 0 1 1-8.839 8.839 8.839 8.839 0 0 1 8.839-8.839" class="b"/></svg>