<svg xmlns="http://www.w3.org/2000/svg" xmlns:xlink="http://www.w3.org/1999/xlink" viewBox="0 0 155.14 95" width="155.14" height="95"><defs><style>.a{fill:#539e43}.b{fill:#333}.c{fill:url(#a)}.d{fill:none}.e{fill:url(#b)}.f,.g,.h,.i,.j{fill-rule:evenodd}.f{fill:url(#c)}.g{fill:url(#d)}.h{fill:url(#e)}.i{fill:url(#f)}.j{fill:url(#g)}</style><linearGradient id="a" x1=".68" x2=".28" y1=".17" y2=".9" gradientUnits="objectBoundingBox"><stop offset="0" stop-color="#41873f"/><stop offset=".33" stop-color="#418b3d"/><stop offset=".64" stop-color="#419637"/><stop offset=".93" stop-color="#3fa92d"/><stop offset="1" stop-color="#3fae2a"/></linearGradient><linearGradient id="b" x1=".43" x2="1.59" y1=".55" y2="-.18" gradientUnits="objectBoundingBox"><stop offset=".14" stop-color="#41873f"/><stop offset=".4" stop-color="#54a044"/><stop offset=".71" stop-color="#66b848"/><stop offset=".91" stop-color="#6cc04a"/></linearGradient><linearGradient id="c" x1="-44.14" x2="53.28" y1=".13" y2=".13" gradientUnits="objectBoundingBox"><stop offset=".09" stop-color="#6cc04a"/><stop offset=".29" stop-color="#66b848"/><stop offset=".6" stop-color="#54a044"/><stop offset=".86" stop-color="#41873f"/></linearGradient><linearGradient id="d" x1="-.04" x2="1.01" y1=".5" y2=".5" xlink:href="#c"/><linearGradient id="e" x1="-97.14" x2=".28" y1=".36" y2=".36" xlink:href="#c"/><linearGradient id="f" x1="-1.04" x2="1.01" y1=".5" y2=".5" xlink:href="#c"/><linearGradient id="g" x1="1.31" x2=".04" y1="-2.11" y2="2.02" xlink:href="#a"/></defs><path d="M76.729 94.999a3.076 3.076 0 0 1-1.473-.386l-4.664-2.77c-.7-.386-.351-.526-.14-.6a8.508 8.508 0 0 0 2.1-.947.322.322 0 0 1 .351.035l3.577 2.139a.445.445 0 0 0 .421 0l13.992-8.1a.4.4 0 0 0 .211-.386V67.822a.4.4 0 0 0-.211-.386l-13.99-8.066a.444.444 0 0 0-.421 0l-13.991 8.067a.44.44 0 0 0-.211.386v16.166a.441.441 0 0 0 .211.386l3.823 2.209c2.069 1.052 3.366-.175 3.366-1.4v-15.96a.427.427 0 0 1 .421-.421h1.788a.426.426 0 0 1 .421.421V85.18c0 2.77-1.508 4.384-4.138 4.384a6.015 6.015 0 0 1-3.226-.877l-3.682-2.1a2.959 2.959 0 0 1-1.473-2.56V67.856a2.959 2.959 0 0 1 1.473-2.56l13.992-8.1a3.13 3.13 0 0 1 2.946 0l13.992 8.1a2.96 2.96 0 0 1 1.473 2.56v16.166a2.96 2.96 0 0 1-1.473 2.56l-13.992 8.1a3.587 3.587 0 0 1-1.473.316zm4.313-11.116c-6.137 0-7.4-2.805-7.4-5.19a.426.426 0 0 1 .421-.421h1.824a.36.36 0 0 1 .386.351c.281 1.858 1.087 2.77 4.8 2.77 2.946 0 4.208-.666 4.208-2.244 0-.912-.351-1.578-4.945-2.034-3.823-.386-6.207-1.227-6.207-4.278 0-2.841 2.385-4.524 6.382-4.524 4.489 0 6.7 1.543 6.979 4.909a.566.566 0 0 1-.105.316.434.434 0 0 1-.281.14H85.28a.41.41 0 0 1-.386-.316c-.421-1.929-1.508-2.56-4.384-2.56-3.226 0-3.612 1.122-3.612 1.964 0 1.017.456 1.333 4.8 1.894 4.313.561 6.348 1.368 6.348 4.384-.025 3.085-2.55 4.839-7.004 4.839z" class="a"/><path d="M33.315 31.772a1.785 1.785 0 0 0-.912-1.543l-14.869-8.557a2.159 2.159 0 0 0-.806-.246h-.14a1.666 1.666 0 0 0-.806.246L.912 30.229A1.784 1.784 0 0 0 0 31.772l.035 23a.872.872 0 0 0 .456.772.8.8 0 0 0 .877 0l8.837-5.05a1.784 1.784 0 0 0 .912-1.543V38.189a1.784 1.784 0 0 1 .912-1.543l3.752-2.174a1.7 1.7 0 0 1 .912-.246 1.508 1.508 0 0 1 .877.246l3.752 2.174a1.783 1.783 0 0 1 .912 1.543v10.766a1.784 1.784 0 0 0 .912 1.543l8.837 5.05a.856.856 0 0 0 .912 0 .872.872 0 0 0 .456-.772l-.035-23zM104.784.105a.964.964 0 0 0-.877 0 .914.914 0 0 0-.456.771v22.795a.631.631 0 0 1-.947.561l-3.717-2.139a1.807 1.807 0 0 0-1.789 0L82.13 30.685a1.784 1.784 0 0 0-.912 1.543v17.148a1.785 1.785 0 0 0 .912 1.543l14.869 8.592a1.808 1.808 0 0 0 1.789 0l14.869-8.592a1.784 1.784 0 0 0 .912-1.543V6.628a1.8 1.8 0 0 0-.912-1.578L104.784.105zm-1.368 43.625a.4.4 0 0 1-.211.386l-5.085 2.946a.52.52 0 0 1-.456 0l-5.085-2.946a.44.44 0 0 1-.211-.386v-5.892a.4.4 0 0 1 .211-.386l5.09-2.945a.52.52 0 0 1 .456 0l5.085 2.946a.439.439 0 0 1 .211.386v5.891zm50.853-6.03a1.751 1.751 0 0 0 .877-1.543v-4.175a1.827 1.827 0 0 0-.877-1.543l-14.764-8.557a1.807 1.807 0 0 0-1.788 0l-14.869 8.591a1.784 1.784 0 0 0-.912 1.543v17.149a1.784 1.784 0 0 0 .912 1.543l14.764 8.416a1.742 1.742 0 0 0 1.753 0l8.942-4.979a.881.881 0 0 0 0-1.543l-14.938-8.591a.914.914 0 0 1-.456-.771v-5.366a.872.872 0 0 1 .456-.772l4.664-2.665a.856.856 0 0 1 .912 0l4.664 2.665a.914.914 0 0 1 .456.772v4.208a.871.871 0 0 0 .456.771.856.856 0 0 0 .912 0l8.836-5.153z" class="b"/><path d="M138.379 36.891a.319.319 0 0 1 .35 0l2.841 1.648a.367.367 0 0 1 .175.316v3.3a.368.368 0 0 1-.175.316l-2.841 1.648a.319.319 0 0 1-.35 0l-2.841-1.648a.368.368 0 0 1-.175-.316v-3.3a.367.367 0 0 1 .175-.316z" class="a"/><path d="M58.178 21.953a1.807 1.807 0 0 0-1.788 0l-14.764 8.521a1.751 1.751 0 0 0-.877 1.543v17.078a1.827 1.827 0 0 0 .877 1.543l14.761 8.522a1.807 1.807 0 0 0 1.788 0l14.764-8.522a1.752 1.752 0 0 0 .877-1.543V32.017a1.827 1.827 0 0 0-.877-1.543z" class="c"/><path d="M56.354 21.952l-14.798 8.521a1.819 1.819 0 0 0-.947 1.544v17.078a1.689 1.689 0 0 0 .456 1.122l16.622-28.475a2 2 0 0 0-1.333.21zm1.438 37.383a2.156 2.156 0 0 0 .417-.176l14.8-8.522a1.784 1.784 0 0 0 .912-1.543V32.017a1.786 1.786 0 0 0-.526-1.227L57.793 59.335z" class="d"/><path d="M72.977 30.474l-14.834-8.522a2.435 2.435 0 0 0-.456-.175L41.063 50.253a1.845 1.845 0 0 0 .491.421l14.836 8.521a1.709 1.709 0 0 0 1.368.175l15.605-28.545a1.84 1.84 0 0 0-.386-.351z" class="e"/><path d="M73.924 49.095V32.016a1.819 1.819 0 0 0-.947-1.543l-14.834-8.521a1.549 1.549 0 0 0-.561-.21l16.236 27.743a.707.707 0 0 0 .105-.386zM41.556 30.474a1.82 1.82 0 0 0-.947 1.543v17.078a1.9 1.9 0 0 0 .947 1.543L56.39 59.16a1.651 1.651 0 0 0 1.157.21L41.661 30.438l-.1.035z" class="d"/><path d="M55.898 18.831l-.208.105h.28z" class="f"/><path d="M73.012 50.638a2 2 0 0 0 .877-1.122L57.617 21.742a1.781 1.781 0 0 0-1.262.21l-14.729 8.487 15.886 28.966a2.445 2.445 0 0 0 .666-.21l14.834-8.557z" class="g"/><path d="M74.38 50.357l-.105-.175v.245l.1-.07z" class="h"/><path d="M73.012 50.638l-14.8 8.522a2.116 2.116 0 0 1-.666.21l.281.526 16.412-9.5v-.211l-.421-.7a1.629 1.629 0 0 1-.806 1.153z" class="i"/><path d="M73.012 50.638l-14.8 8.522a2.116 2.116 0 0 1-.666.21l.281.526 16.412-9.5v-.211l-.421-.7a1.629 1.629 0 0 1-.806 1.153z" class="j"/></svg>