<svg xmlns="http://www.w3.org/2000/svg" viewBox="0 0 87.96 101.5" width="87.96" height="101.5"><defs><style>.a{fill:#136da9}.b{fill:#f0f0f0}.c{fill:none;stroke:#fffdff}.d{fill:#008ece}.e{fill:#a0d8f1}</style></defs><path d="M28.934 16.18C11.176 23.725 0 38.514 0 57.52a43.98 43.98 0 0 0 87.961 0c0-29.2-27.134-40.813-27.134-40.813a68.879 68.879 0 0 1-9.241-4.67S47.4 9.477 40.102.058c0 0 .166 10.7-11.168 16.123" class="a"/><path d="M39.579 92.987c-1.545-1.073-1.177-4.492 3.009-2.05 0 0 8.913 6.546 23.025-1.308 1.1-.611 2.442 1.544-1.047 3.518 0 0-14.26 7.3-24.987-.161z" class="b"/><path d="M39.579 92.987c-1.545-1.073-1.177-4.492 3.009-2.05 0 0 8.913 6.546 23.025-1.308 1.1-.611 2.442 1.544-1.047 3.518 0 0-14.26 7.3-24.987-.161z" class="c"/><path d="M57.766 82.129c5.19.608 3.405 3.1 4.8 3.488 2.834.785 1.613-2.311 1.613-2.311-2.094-4.186-5.713-3.924-5.713-3.924-5.669-.872-9.9 4.535-9.9 4.535-1.047 2.311.417 2.43.959 2.18 2.741-1.265 4.416-4.417 8.241-3.968z" class="b"/><path d="M57.766 82.129c5.19.608 3.405 3.1 4.8 3.488 2.834.785 1.613-2.311 1.613-2.311-2.094-4.186-5.713-3.924-5.713-3.924-5.669-.872-9.9 4.535-9.9 4.535-1.047 2.311.417 2.43.959 2.18 2.741-1.265 4.416-4.417 8.241-3.968z" class="c"/><path d="M5.756 79.635s15.77 13.047 54.142-16.019c0 0 19.275-12.1 18.694-32.847a44.287 44.287 0 0 0-16.759-13.587c-1.5-.658-14.649-7.834-21.751-16.833 0 0-1.287 26.107-34.725 36.414 0 0-8.426 12.428-3.832 32.626 0 0 2.94 8.189 4.232 10.247" class="d"/><path d="M30.766 84.484s-13.083.348-11.512-13.606c0 0 2.733-15.7 21.106-12.21 0 0 4.013.872 11.513 6.628 0 0 4.95 3.816 7.675 3.744 0 0 2.115.2 6.512-2.581 0 0 8.968-6.921 12.1-6.715.078.005 6.328-.683 6.328 9.39 0 0 .116 11.106-8.256 14.827 0 0-2.21.756-4.594-1.744 0 0-6.861-7.791-10.233-9.071a6.888 6.888 0 0 0-4.535.175s-1.686.175-8.6 4.768c0 0-11.63 7.268-17.5 6.4z" class="b"/><path d="M30.766 84.484s-13.083.348-11.512-13.606c0 0 2.733-15.7 21.106-12.21 0 0 4.013.872 11.513 6.628 0 0 4.95 3.816 7.675 3.744 0 0 2.115.2 6.512-2.581 0 0 8.968-6.921 12.1-6.715.078.005 6.328-.683 6.328 9.39 0 0 .116 11.106-8.256 14.827 0 0-2.21.756-4.594-1.744 0 0-6.861-7.791-10.233-9.071a6.888 6.888 0 0 0-4.535.175s-1.686.175-8.6 4.768c0 0-11.63 7.268-17.5 6.4z" class="c"/><path d="M37.69 34.422C46.16 22.29 40.082 0 40.082 0a18.681 18.681 0 0 1-10.951 16.085C10.862 23.97 5.357 36.414 5.357 36.414c3.915 5.552 14.308 23.823 32.333-1.992" class="d"/><path d="M40.082 0s1.1 10.176-4.427 13.49c0 0-8.858 4.123-11.562 5.475 0 0-11.376 6.866-15.126 13.32 0 0-8.024 10.737 3.053 8.2 0 0 20.031-5.655 28.171-22.72a2.961 2.961 0 0 0-1.048-2.922s6.105-4.607.939-14.843" class="e"/><path d="M40.081 0a17.757 17.757 0 0 1-5.311 12.706s-1.732 2.441-10.678 6.259c0 0-10.241 5.34-14.833 12.745 0 0-6.8 8.208 2.526 6.007 0 0 18.906-6.967 25.833-19.762a2.1 2.1 0 0 0-.489-2.73s6.783-5.3 2.952-15.226" class="b"/></svg>