<svg xmlns="http://www.w3.org/2000/svg" viewBox="0 0 483.58 448.3" width="483.58" height="448.3"><defs><style>.a{fill:#fff}.b{fill:#ffda40}.c{fill:#f5f5f5}.d{fill:#ffe98d}.e{fill:#ff9fb4}.f{fill:#f2f2f2}.g{fill:#ff7990}.h{fill:#2222ba}.i{fill:#5e59c3}.j{fill:#7b7bbf}.k{fill:#d8d2fe}.l{fill:#7375a8}.m{fill:#f45d01}.n{fill:#3d3dbf}.o{fill:#ff5a7e}.p{fill:#fbdfb6}.q{fill:url(#a)}.r{fill:#f1a3c5}.s{fill:url(#b)}.t{fill:url(#c)}.u{fill:url(#d)}.v{fill:#91d9f5}.w{fill:url(#e)}.x{fill:#f6cea8}.y{fill:rgba(255,255,255,0)}.z{fill:#fbfbfb;opacity:.024}.aa{fill:#f6f6f8;opacity:.049}.ab{fill:#f2f2f4;opacity:.073}.ac{fill:#ededf0;opacity:.098}.ad{fill:#e9e9ed;opacity:.122}.ae{fill:#e4e4e9;opacity:.146}.af{fill:#e0e0e6;opacity:.171}.ag{fill:#dbdbe2;opacity:.195}.ah{fill:#d7d7de;opacity:.22}.ai{fill:#d2d2db;opacity:.244}.aj{fill:#ceced7;opacity:.268}.ak{fill:#c9c9d3;opacity:.293}.al{fill:#c5c5d0;opacity:.317}.am{fill:#c1c1cc;opacity:.342}.an{fill:#bcbcc8;opacity:.366}.ao{fill:#b8b8c5;opacity:.39}.ap{fill:#b3b3c1;opacity:.415}.aq{fill:#afafbe;opacity:.439}.ar{fill:#aaaaba;opacity:.463}.as{fill:#a6a6b6;opacity:.488}.at{fill:#a1a1b3;opacity:.512}.au{fill:#9d9daf;opacity:.537}.av{fill:#9898ab;opacity:.561}.aw{fill:#9494a8;opacity:.585}.ax{fill:#8f8fa4;opacity:.61}.ay{fill:#8b8ba1;opacity:.634}.az{fill:#86869d;opacity:.659}.ba{fill:#828299;opacity:.683}.bb{fill:#7e7e96;opacity:.707}.bc{fill:#797992;opacity:.732}.bd{fill:#75758e;opacity:.756}.be{fill:#70708b;opacity:.78}.bf{fill:#6c6c87;opacity:.805}.bg{fill:#676783;opacity:.829}.bh{fill:#636380;opacity:.854}.bi{fill:#5e5e7c;opacity:.878}.bj{fill:#5a5a79;opacity:.902}.bk{fill:#555575;opacity:.927}.bl{fill:#515171;opacity:.951}.bm{fill:#4c4c6e;opacity:.976}.bn{fill:#48486a}.bo{fill:#f97932}.bp{fill:url(#f)}</style><linearGradient id="a" x1="-56.72" x2="-56.69" y1="7.85" y2="7.85" gradientUnits="objectBoundingBox"><stop offset="0" stop-color="#fff"/><stop offset="1" stop-color="#ff3f94"/></linearGradient><linearGradient id="b" x1="-53.44" x2="-53.42" y1="7.88" y2="7.88" gradientUnits="objectBoundingBox"><stop offset="0" stop-color="#fff"/><stop offset="1" stop-color="#01c1ec"/></linearGradient><linearGradient id="c" x1="-53.15" x2="-53.12" y1="7.97" y2="7.97" gradientUnits="objectBoundingBox"><stop offset="0" stop-color="#2bbeee"/><stop offset="1" stop-color="#5cccef"/></linearGradient><linearGradient id="d" x1="-54.58" x2="-54.56" y1="6.58" y2="6.58" gradientUnits="objectBoundingBox"><stop offset="0" stop-color="#fff"/><stop offset="1" stop-color="#7fcaf9"/></linearGradient><linearGradient id="e" x1="-56.62" x2="-56.59" y1="6.88" y2="6.88" gradientUnits="objectBoundingBox"><stop offset="0" stop-color="#fff"/><stop offset="1" stop-color="#f87903"/></linearGradient><linearGradient id="f" x2="1" y1=".5" y2=".5" gradientUnits="objectBoundingBox"><stop offset="0" stop-color="#f45d01"/><stop offset="1" stop-color="#f9a06e"/></linearGradient></defs><g transform="translate(302.779 112.849)"><path d="M175.9 107.5V203a20.352 20.352 0 0 1-40.7.5v-95.9h40.7z" class="a"/><g transform="translate(139.671 107.518)"><path d="M15.9 71.4C7.1 71.4 0 67.3 0 62.2v33.4a15.9 15.9 0 1 0 31.8 0V62.2c.1 5.1-7.1 9.2-15.9 9.2z" class="b"/><path d="M0 0v62.2C0 57.1 7.2 53 15.9 53c8.8 0 15.9 4.1 15.9 9.2V0z" class="c"/><ellipse cx="15.9" cy="9.2" class="d" rx="15.9" ry="9.2" transform="translate(0 53)"/></g><path d="M110.6 69.8v95.6a20.352 20.352 0 0 1-40.7 0V69.8z" class="a"/><g transform="translate(74.343 69.789)"><path d="M16 52.9C7.2 52.9.1 48.8.1 43.7v51.9a15.9 15.9 0 1 0 31.8 0V43.7c0 5-7.2 9.2-15.9 9.2z" class="e"/><path d="M0 0v43.6c0-5.1 7.2-9.2 15.9-9.2 8.8 0 15.9 4.1 15.9 9.2V0z" class="f"/><ellipse cx="15.9" cy="9.2" class="g" rx="15.9" ry="9.2" transform="translate(.1 34.5)"/></g><path d="M45.3 32.2v95.5a20.352 20.352 0 1 1-40.7.5v-96z" class="a"/><g transform="translate(9.107 32.153)"><path d="M15.9 86C7.1 86 0 81.9 0 76.8v18.8a15.9 15.9 0 1 0 31.8 0V76.8c0 5.1-7.1 9.2-15.9 9.2z" class="h"/><path d="M0 0v76.8c0-5.1 7.2-9.2 15.9-9.2 8.8 0 15.9 4.1 15.9 9.2V0z" class="f"/><ellipse cx="15.9" cy="9.2" class="i" rx="15.9" ry="9.2" transform="translate(0 67.6)"/></g><path d="M133.3 107.5c4.1-4.7 12.5-8 22.4-8s18.2 3.3 22.4 8h2.7v6.5c0 8-11.2 14.4-25 14.4s-25-6.5-25-14.4v-6.5h2.5z" class="j"/><ellipse cx="25" cy="14.4" class="a" rx="25" ry="14.4" transform="translate(130.6 93.1)"/><path d="M67.9 69.8c4.1-4.7 12.5-8 22.4-8s18.2 3.3 22.4 8h2.7v6.5c0 8-11.2 14.4-25 14.4s-25-6.5-25-14.4v-6.5z" class="j"/><ellipse cx="20.4" cy="11.7" class="j" rx="20.4" ry="11.7" transform="translate(135.2 95.8)"/><ellipse cx="25" cy="14.4" class="a" rx="25" ry="14.4" transform="translate(65.3 55.4)"/><path d="M2.7 32.2c4.1-4.7 12.5-8 22.3-8s18.2 3.3 22.4 8h2.7v6.5c0 8-11.2 14.4-25 14.4S0 46.6 0 38.7v-6.5z" class="j"/><ellipse cx="20.4" cy="11.7" class="j" rx="20.4" ry="11.7" transform="translate(69.9 58.1)"/><ellipse cx="25" cy="14.4" class="a" rx="25" ry="14.4" transform="translate(0 17.8)"/><ellipse cx="20.4" cy="11.7" class="j" rx="20.4" ry="11.7" transform="translate(4.6 20.5)"/><path d="M82.366 30.1a3.5 3.5 0 1 0-3.5 3.5 3.478 3.478 0 0 0 3.5-3.5zm-11.7-15.3a3.5 3.5 0 1 0 3.5 3.5 3.543 3.543 0 0 0-3.5-3.5zm-36.5-11.2a3.478 3.478 0 0 0-3.5 3.5 3.543 3.543 0 0 0 3.5 3.5 3.478 3.478 0 0 0 3.5-3.5 3.542 3.542 0 0 0-3.5-3.5zm-6.9 10.5a3.5 3.5 0 0 0 0 7 3.543 3.543 0 0 0 3.5-3.5 3.543 3.543 0 0 0-3.5-3.5zm30.3-10.6a3.478 3.478 0 0 0-3.5 3.5 3.5 3.5 0 0 0 7 0 3.417 3.417 0 0 0-3.5-3.5zM44.666 0a3.478 3.478 0 0 0-3.5 3.5 3.543 3.543 0 0 0 3.5 3.5 3.478 3.478 0 0 0 3.5-3.5 3.417 3.417 0 0 0-3.5-3.5zm-19.7 28.6a3.5 3.5 0 1 0 0 7 3.543 3.543 0 0 0 3.5-3.5 3.417 3.417 0 0 0-3.5-3.5zm128.5 51.2a3.5 3.5 0 1 0-3.5 3.5 3.417 3.417 0 0 0 3.5-3.5zm-5.8-12.1a3.5 3.5 0 1 0-3.5 3.5 3.417 3.417 0 0 0 3.5-3.5zm-55.2-15.8a3.5 3.5 0 1 0 3.5 3.5 3.478 3.478 0 0 0-3.5-3.5zm63.1 52.1a3.478 3.478 0 0 0-3.5 3.5 3.543 3.543 0 0 0 3.5 3.5 3.478 3.478 0 0 0 3.5-3.5 3.543 3.543 0 0 0-3.5-3.5zm-65.2-37.7a3.5 3.5 0 1 0 3.5 3.5 3.478 3.478 0 0 0-3.5-3.5zm32.6-25.1a3.478 3.478 0 0 0-3.5 3.5 3.5 3.5 0 0 0 7 0 3.478 3.478 0 0 0-3.5-3.5zm13 11.4a3.478 3.478 0 0 0-3.5 3.5 3.5 3.5 0 1 0 3.5-3.5zm-36.5-11.2a3.5 3.5 0 1 0 3.5 3.5 3.478 3.478 0 0 0-3.5-3.5zm10.7-3.7a3.5 3.5 0 1 0 3.5 3.5 3.417 3.417 0 0 0-3.5-3.5zm47.3 55.4a3.5 3.5 0 1 0-3.5 3.5 3.543 3.543 0 0 0 3.5-3.5zm-69.3-50.8a3.5 3.5 0 1 0-3.5 3.5 3.543 3.543 0 0 0 3.5-3.5z" class="a"/></g><g transform="translate(328.025)"><ellipse cx="13.6" cy="7.8" class="h" rx="13.6" ry="7.8" transform="translate(27.4 97.4)"/><ellipse cx="13.6" cy="7.8" class="l" rx="13.6" ry="7.8" transform="translate(27.4 84.3)"/><path d="M27.3 92.1v13.1h27.2V92.1" class="h"/><ellipse cx="23.9" cy="13.7" class="g" rx="23.9" ry="13.7" transform="translate(17.1 78.4)"/><path d="M17.1 78.5v13.7h47.7V78.5" class="g"/><ellipse cx="23.9" cy="13.7" class="d" rx="23.9" ry="13.7" transform="translate(17.1 64.8)"/><circle cx="41" cy="41" r="41" class="d"/><path d="M17.1 78.5V68.2h47.7v10.2" class="d"/></g><g transform="translate(.025 211.672)"><path d="M362.818 175.707l-76.4 44.1 3.9 2.2 76.4-44.1z" class="h"/><path d="M328.58 194.19l5.5 3.2c.5.3.5.8-.1 1.2l-7.1 4.2a2.229 2.229 0 0 1-2.1 0l-5.5-3.2c-.5-.3-.5-.8.2-1.2l7.1-4.1a2.012 2.012 0 0 1 2-.1zm-41.277 23.459l6.1 3.5c.5.3.5.8-.1 1.2l-7.1 4.1a2.248 2.248 0 0 1-2.1.1l-6.1-3.5c-.5-.3-.5-.8.2-1.2l7.1-4.1a2.012 2.012 0 0 1 2-.1zm82.469-46.949l5.5 3.2c.5.3.5.8-.1 1.2l-7.8 4.5a1.986 1.986 0 0 1-2.1 0l-5.5-3.2c-.5-.3-.5-.8.2-1.2l7.8-4.5a2.332 2.332 0 0 1 2 0z" class="h"/><path d="M387.395 192.843a50.18 50.18 0 0 0-27.6-6.3 72.9 72.9 0 0 0-31 8.8l-1.1.6 1 .6 3 1.7 1-.7a64.6 64.6 0 0 1 26.8-7.6 42.863 42.863 0 0 1 23.5 5.6l1 .5 4.4-2.6zm-65.965 6.616c-1.4.9-13.9 8.3-15.1 17.9-.8 5.9 3 11.3 11 15.9l1 .5 4.5-2.6-1-.5c-7-4-10.2-8.6-9.5-13.6 1-8.3 13-15.3 13.1-15.3l1.1-.7-3.9-2.3z" class="h"/><path d="M386.22 189.166l6.1 3.6c.5.3.4.8-.2 1.2l-7.8 4.4a2.248 2.248 0 0 1-2.1.1l-6.1-3.6c-.5-.3-.5-.8.1-1.2l7.8-4.5a2.8 2.8 0 0 1 2.2 0zm-65.147 38.259l5.5 3.2c.5.3.5.8-.2 1.2l-7.7 4.5a1.986 1.986 0 0 1-2.1 0l-5.5-3.2c-.5-.3-.5-.8.2-1.2l7.8-4.5a2.335 2.335 0 0 1 2 0z" class="h"/><path d="M254.8 180.2l-44.4-25.6-7.4-4.3L4.1 35.5c-5.5-3.2-5.5-13.5 0-23.1S18.5-2.3 24.1.9l198.8 114.8 7.4 4.3 44.4 25.6z" class="m"/><ellipse cx="20" cy="11.5" class="f" rx="20" ry="11.5" transform="rotate(-60 273.582 -124.785)"/><ellipse cx="15.1" cy="8.7" class="n" rx="15.1" ry="8.7" transform="rotate(-60 273.557 -130.429)"/><ellipse cx="15.1" cy="8.7" class="n" rx="15.1" ry="8.7" transform="rotate(-60 287.336 -138.35)"/><path d="M257.173 176.103l15.1-26.153 13.856 8-15.1 26.153z" class="n"/><ellipse cx="10.9" cy="6.3" class="a" rx="10.9" ry="6.3" transform="rotate(-60 287.315 -143.187)"/><path d="M315.1 173.1l6.2 20.3-17.9-10.3c1.5-1.5 1.4-3.3-.5-4.4-2.4-1.4-6.5-1.2-9.2.4s-3 4-.7 5.3a9.892 9.892 0 0 0 7.6.3l17.9 10.3-35.2-3.6s-.1-9.5-12.4-16.5l15.6-9c12.2 7.2 28.6 7.2 28.6 7.2z" class="f"/></g><g transform="translate(78.178 178.872)"><path d="M25.026 151.745a6.031 6.031 0 0 0-5.7 2.7c-2.5 4.1-3.1 8.8-7.7 15.6-3.1 4.6-5.3 5.2-7.6 9-2.1 3.3 1 5.3 4.5 4.8 1.4-.2 9.9-.4 11.5-6.8 1.2-4.6 1.5-8.3 3.9-12s3.1-1.1 3.4.2c.1 1 .6 3.7.8 4.6a.666.666 0 0 0 .7.5.56.56 0 0 0 .5-.6v-.1a29.475 29.475 0 0 1 .3-8.4c.8-5-1.9-9-4.6-9.5z" class="o"/><path d="M16.636 173.025c2.5-3.3 7.2-14.4 6.9-17.1-.4-3.3-6.6-4.9-7.6-2.4-1.8 4.5-1.8 13-7.6 20.6-.1 2.4 5.3 2.8 8.3-1.1z" class="p"/><path d="M25.382 175.118c-3-.8-5.4 1.6-5.9 2.3-2.7 3.9-3.6 8.6-8.6 15.1-3.4 4.5-5.6 4.9-8.2 8.6-2.2 3.1.7 5.3 4.2 5 1.4-.1 9.9.2 11.9-6 1.5-4.5 2.1-8.2 4.7-11.7s3.2-.9 3.3.5c.1 1 .4 3.7.5 4.6.1.3.3.6.7.5a.645.645 0 0 0 .6-.6v-.1a29.949 29.949 0 0 1 .8-8.4c1.1-5-1.2-9.2-4-9.8z" class="o"/><path d="M15.647 195.761c2.8-3.2 8.1-13.9 7.9-16.7-.2-3.2-6.3-5.3-7.4-2.8-2 4.4-2.6 12.8-8.9 20.1-.2 2.4 5.2 3.1 8.4-.6z" class="p"/><path d="M63.3 1.9S87-8.1 94.5 17.8 107.9 55 116.8 58c0 0-24.6 37.6-63.2-4 8-12.7-11.6-42.6 9.7-52.1z" class="h"/><path d="M24.4 156.7l-3.7.3a5.974 5.974 0 0 1-6.3-5.4l-3.7-49.2a5.974 5.974 0 0 1 5.4-6.3l3.7-.3a5.974 5.974 0 0 1 6.3 5.4l3.7 49.2a5.786 5.786 0 0 1-5.4 6.3z" class="j"/><path d="M23.2 181l-3.6-1.1a6.01 6.01 0 0 1-3.9-7.4l14.8-47.1a6.01 6.01 0 0 1 7.4-3.9l3.6 1.1a6.01 6.01 0 0 1 3.9 7.4l-14.8 47.1a5.844 5.844 0 0 1-7.4 3.9zm43.6-66.1l-49.2-2.3a7.05 7.05 0 0 1-6.7-7.4l.2-4.5a7.05 7.05 0 0 1 7.4-6.7l49.2 2.3a7.05 7.05 0 0 1 6.7 7.4l-.2 4.5a7.05 7.05 0 0 1-7.4 6.7z" class="j"/><path d="M87.2 121.9l-46.7 15.8a6.926 6.926 0 0 1-8.9-4.4v-.1l-1.4-4.3a6.926 6.926 0 0 1 4.4-8.9h.1l46.7-15.8a6.926 6.926 0 0 1 8.9 4.4v.1l1.4 4.3a7.228 7.228 0 0 1-4.5 8.9z" class="j"/><path d="M44.9 82.6s-17.5-.7-20.9-.9a8.572 8.572 0 0 0-7.4 4.3c-.8 1.9 3.4 5.7 4.4 6.2 1.1.5 2.4-3 6.3-2.7 3.9.2 20.5 1.2 20.5 1.2z" class="p"/><path d="M93.5 100.9s6.1 21.8-12.6 21.8c-7.4-11.5-24.3-27.3-24.3-27.3z" class="j"/><path d="M73.705 53.372a6.75 6.75 0 0 0-6-7.2h-.7a6.966 6.966 0 0 0-6.5 6.3c-.7 7.8-4.5 25.2-11.5 27.8a6.817 6.817 0 0 1-4 0 6.665 6.665 0 0 0-7.2 2.4.1.1 0 0 1-.1.1 6.521 6.521 0 0 0 1.2 9.1 6.916 6.916 0 0 0 1.9 1 19.668 19.668 0 0 0 12.9-.1c16.4-6.2 19.5-33.9 20-39.4z" class="e"/><path d="M63.5 52s-6.3 6.3-9 10.4S55.8 73.2 59 75c2.2 5.3.1 10.7-2.4 20.5 0 5.8 26.1 20.6 36.9 5.4a60.16 60.16 0 0 1 .3-43.4c-2.4-3.2-9.4-7.2-12.6-9.1-6-3.4-8.4-3.1-8.4-3.1z" class="e"/><ellipse cx="9.9" cy="5.6" class="p" rx="9.9" ry="5.6" transform="rotate(-6.95 426.015 -491.462)"/><g transform="translate(0 71.524)"><path d="M67.021 40.223v-1.4l-1.3-.1-32.9-19a5.826 5.826 0 0 0-5.3.2l-3.3 1.9-19.5 11.4-.7.4-2.2-.2v1.4l2.5 1.4 33.2 19.2 2.5 1.4 2.8-1.6 19.5-11.3 3.3-1.9a2.178 2.178 0 0 0 1.4-1.8z" class="n"/><path d="M66.121 37.523l-33.2-19.2a5.826 5.826 0 0 0-5.3.2l-3.3 1.9-19.5 11.4-2.8 1.6 2.5 1.4 33.2 19.2 2.5 1.4 2.8-1.6 19.5-11.3 3.3-1.9c1.4-1 1.6-2.3.3-3.1z" class="a"/><path d="M51.021 43.123l-18.2-10.5a3.289 3.289 0 0 0-2.9.1l-1.8 1-10.7 6.2-1.6.9 1.3.8 18.2 10.5 1.3.8 1.6-.9 10.7-6.2 1.8-1c.9-.5 1-1.3.3-1.7z" class="n"/><path d="M48.321 45.123l-12-6.9a1.857 1.857 0 0 0-1.9.1l-1.2.7-7.1 4-1 .6.9.5 12 6.9.9.5 1-.6 7.1-4 1.2-.7a.621.621 0 0 0 .1-1.1zm-6.3-8.6l-10.2-5.9c-.8-.5-.7-1.3.2-1.8l6.6-3.8a3.4 3.4 0 0 1 3.1-.1l10.2 5.9c.8.5.7 1.3-.2 1.8l-6.6 3.8a3.114 3.114 0 0 1-3.1.1z" class="n"/><path d="M40.6 55.1l-.2-3.4L39 28.3l-.2-4a6.267 6.267 0 0 0-2.7-4.8L2.8.3A1.063 1.063 0 0 0 1.6.1a.367.367 0 0 0-.3.1L.9.4l.1.1a2.885 2.885 0 0 0-.3 1.8l.2 4 1.4 23.4.2 3.4L5 34.5l33.2 19.2 1.1.6.8 1.1z" class="a"/><path d="M35.4 19.8L2.2.6C.9-.2-.1.7 0 2.6l.2 4L1.6 30l.2 3.4 2.5 1.5L37.6 54l2.5 1.4-.3-3.4-1.4-23.4-.2-4a6.882 6.882 0 0 0-2.8-4.8z" class="n"/><ellipse cx="2.8" cy="3.9" class="a" rx="2.8" ry="3.9" transform="rotate(-49.709 34.591 -1.357)"/></g><path d="M56.6 13s-2.5 4.5-2.1 12.1c.5 6.2-.5 13 1 16.3 1.6 3.3 8.7 9.5 19.5 4.2 8.4-4.6 9.5-14.2 9.5-14.2s2.7-1.5 3-2.8c.9-1.4.7-5.9-4.1-3.4-5.5-.4-18.5-1.5-26.8-12.2z" class="p"/><path d="M68.9 42.8h8.4v8.4h-8.4zm9.8 55s-17 4.2-20.3 4.8a8.393 8.393 0 0 0-6 6.2c-.2 2 4.8 4.5 6 4.8s1.5-3.5 5.3-4.3 20-4.5 20-4.5z" class="p"/><path d="M60.1 102.5a25.97 25.97 0 0 1-6.2-.5c-1.4-.4-.9 2.4 3 2.4s3.2-1.9 3.2-1.9z" class="p"/><path d="M94.19 56.363a6.619 6.619 0 0 0-8.6-3.5 2.01 2.01 0 0 0-.8.4 6.871 6.871 0 0 0-2.7 8.6c3 7.2 7.8 24.4 2.9 30a7.006 7.006 0 0 1-3.6 1.9 6.717 6.717 0 0 0-5.3 5.4v.1a6.536 6.536 0 0 0 5.4 7.5 6.7 6.7 0 0 0 2 0 18.508 18.508 0 0 0 11.3-6.2c11.7-13.2 1.5-39.1-.6-44.2z" class="e"/></g><path d="M114.34 82.296l-1 .6v31.8a11.344 11.344 0 0 0 5.2 9l27.1 15.8 2.1-1a2.332 2.332 0 0 0 1.3-2.1v-30.2a11.344 11.344 0 0 0-5.2-9l-26-15.1a3.387 3.387 0 0 0-3.5.2z" class="q"/><path d="M117.04 83.296c-2.9-1.8-5.2-.2-5.2 3v28.9a11.344 11.344 0 0 0 5.2 9l25.4 14.6c2.9 1.7 5.2.4 5.2-3.1v-28.9a11.344 11.344 0 0 0-5.2-9z" class="r"/><path d="M164.783 42.019l-1 .8v34.3a12.067 12.067 0 0 0 5.8 9.8l29.5 17.1 2.3-1.2a2.214 2.214 0 0 0 1.3-2.3v-32.7a12.067 12.067 0 0 0-5.8-9.8l-28.3-16.1a3.014 3.014 0 0 0-3.8.1z" class="s"/><path d="M167.883 43.019c-3.1-1.7-5.8-.2-5.8 3.3v31.4a12.067 12.067 0 0 0 5.8 9.8l27.5 16c3.1 1.7 5.8.4 5.8-3.3v-31.8a12.067 12.067 0 0 0-5.8-9.8z" class="t"/><path d="M165.851 131.285l-1 .8v33.7a12.158 12.158 0 0 0 5.6 9.6l28.9 16.7 2.3-1.2a2.772 2.772 0 0 0 1.3-2.3v-32.3a12.158 12.158 0 0 0-5.6-9.6l-27.8-16a4.029 4.029 0 0 0-3.7.6z" class="u"/><path d="M168.951 132.285c-3.1-1.8-5.6-.2-5.6 3.3v30.8a12.158 12.158 0 0 0 5.6 9.6l26.9 15.6c3.1 1.7 5.6.4 5.6-3.3v-31.2a12.158 12.158 0 0 0-5.6-9.6z" class="v"/><path d="M243.347 113.562l-1 .8v33.7a12.425 12.425 0 0 0 5.6 9.6l28.9 16.7 2.3-1.2a2.772 2.772 0 0 0 1.3-2.3v-32.1a12.158 12.158 0 0 0-5.6-9.6l-27.8-16a3.787 3.787 0 0 0-3.7.4z" class="w"/><path d="M246.247 114.562c-3.1-1.7-5.6-.2-5.6 3.3v30.8a12.158 12.158 0 0 0 5.6 9.6l26.9 15.6c3.1 1.7 5.6.4 5.6-3.3v-31.2a12.158 12.158 0 0 0-5.6-9.6z" class="x"/><path d="M174.325 70.449v6.4l-2.3-1.4.2-16.6 4.8 3.1a10.629 10.629 0 0 1 3.6 3.7 8.923 8.923 0 0 1 1.2 4.5c0 1.6-.5 2.5-1.3 2.9s-2.1 0-3.6-1zm5.2-1.8a4.845 4.845 0 0 0-.7-2.6 8.379 8.379 0 0 0-2.1-2.1l-2.3-1.4v5.7l2.3 1.5c1.8 1.2 2.7.8 2.8-1.1zm12.9 17.8a1.488 1.488 0 0 1-1.5.7 4.589 4.589 0 0 1-2.5-1 10.673 10.673 0 0 1-2.5-2.2 16.655 16.655 0 0 1-1.8-2.8 9.469 9.469 0 0 1-.8-3l2.4 1.6a5.685 5.685 0 0 0 .8 2.4 5.775 5.775 0 0 0 1.8 2c.7.4 1.2.6 1.6.4a1.375 1.375 0 0 0 .6-1.3 3.287 3.287 0 0 0-.4-1.7 8.636 8.636 0 0 0-1-1.6c-.4-.5-1-1.1-1.7-1.8a19.863 19.863 0 0 1-2.1-2.4 10.887 10.887 0 0 1-1.4-2.3 5.568 5.568 0 0 1-.5-2.8 3.606 3.606 0 0 1 .6-2 1.6 1.6 0 0 1 1.6-.5 5.134 5.134 0 0 1 2.4 1 11.031 11.031 0 0 1 3.4 3.4 8.741 8.741 0 0 1 1.4 4.1l-2.4-1.6a5.786 5.786 0 0 0-.7-2.1 4.621 4.621 0 0 0-1.7-1.7 1.674 1.674 0 0 0-1.5-.4c-.4.1-.6.6-.6 1.3a3.533 3.533 0 0 0 .4 1.7 7.837 7.837 0 0 0 1 1.5 13.127 13.127 0 0 0 1.7 1.8c.8.8 1.5 1.6 2.2 2.4a7.217 7.217 0 0 1 1.4 2.4 7.173 7.173 0 0 1 .6 2.9 7.876 7.876 0 0 0-.8 1.6zm67.2 62.7l-6.7-4.3-1.2 3.2-2.7-1.7 6-14.5 2.9 1.9 5.5 21.9-2.7-1.8zm-.7-2.8l-2.6-10.3-2.7 7zm6.7-9.3q.45-.3 1.2.3a3.745 3.745 0 0 1 1.2 1.3 4.424 4.424 0 0 1 .5 1.5c0 .5-.2.8-.5.9a1.314 1.314 0 0 1-1.2-.3 3.447 3.447 0 0 1-1.2-1.2 2.822 2.822 0 0 1-.4-1.5c-.1-.6.1-.9.4-1zm2.4 7l-.1 14.4-2.6-1.6.2-14.5zm-91.847 22.708l6 3.9v2.6l-8.8-5.7.2-20.6 2.8 1.8zm13.2-4.4a4.719 4.719 0 0 1 3 1v3.6l-.8-.5c-1.2-.8-2.2-1.1-3-.8-.7.2-1.1 1.1-1.2 2.8l-.1 8.1-2.9-1.9.2-16.1 2.8 1.8v3.2a2.275 2.275 0 0 1 2-1.2zm-63.875-63.329l-.2 16.7-2.3-1.5.2-16.7zm11.9 12.7a9.435 9.435 0 0 1 1.1 5l-.1 7.6-2.3-1.5.1-7.3a7.111 7.111 0 0 0-.7-3.2 6.589 6.589 0 0 0-2.1-2.3 2.12 2.12 0 0 0-2.2-.4c-.6.3-.8 1.2-.8 2.5l-.1 7-2.3-1.6.2-13 2.3 1.5v2.9a1.8 1.8 0 0 1 1.5-1.4 3.986 3.986 0 0 1 2.4.7 8.426 8.426 0 0 1 3 3.5z" class="a"/><path d="M407.491 364.899c2.7-1.7 2.7-4.2 0-5.9l-145.6-84.1a10.638 10.638 0 0 0-10.1 0l-13.7 8.1c-2.7 1.7-2.7 4.4 0 5.9l145 83.7a11.039 11.039 0 0 0 10.3 0z" class="y"/><path d="M407.291 364.899c2.7-1.7 2.7-4.2 0-5.9l-145.4-83.9a10.638 10.638 0 0 0-10.1 0l-13.7 8.2c-2.7 1.7-2.7 4.4 0 5.9l144.8 83.7a11.039 11.039 0 0 0 10.3 0z" class="z"/><path d="M407.091 364.899c2.7-1.7 2.7-4.2 0-5.9l-145.2-83.9a10.638 10.638 0 0 0-10.1 0l-13.7 8.2c-2.7 1.7-2.7 4.4 0 5.9l144.6 83.5a10.638 10.638 0 0 0 10.1 0z" class="aa"/><path d="M406.891 364.699c2.7-1.7 2.7-4.2 0-5.9l-145-83.7c-2.8-1.7-7.4-1.5-10.1 0l-13.7 8.1c-2.7 1.7-2.7 4.4 0 5.9l144.4 83.5a10.638 10.638 0 0 0 10.1 0z" class="ab"/><path d="M406.891 364.699c2.7-1.7 2.7-4.2 0-5.9l-144.8-83.7c-2.7-1.7-7.3-1.5-10.1 0l-13.4 8c-2.7 1.7-2.7 4.2 0 5.9l144.2 83.3a10.638 10.638 0 0 0 10.1 0z" class="ac"/><path d="M406.691 364.699c2.7-1.7 2.7-4.2 0-5.7l-144.6-83.5c-2.7-1.7-7.3-1.5-10.1 0l-13.4 8c-2.7 1.7-2.7 4.2 0 5.9l144 83.3a10.638 10.638 0 0 0 10.1 0z" class="ad"/><path d="M406.491 364.499c2.7-1.5 2.7-4.2 0-5.7l-144.2-83.5c-2.7-1.7-7.1-1.5-9.9 0l-13.4 8c-2.7 1.7-2.7 4.2 0 5.9l143.8 83.1a10.638 10.638 0 0 0 10.1 0z" class="ae"/><path d="M406.291 364.499c2.7-1.5 2.7-4.2 0-5.7l-144-83.3c-2.7-1.7-7.1-1.5-9.9 0l-13.4 8c-2.7 1.7-2.7 4.2 0 5.9l143.6 83.1a10.638 10.638 0 0 0 10.1 0z" class="af"/><path d="M406.291 364.499c2.7-1.5 2.7-4.2 0-5.7l-143.8-83.3c-2.7-1.7-7.1-1.5-9.9 0l-13.2 8c-2.7 1.7-2.7 4.2 0 5.9l143.3 82.9a10.246 10.246 0 0 0 9.9 0z" class="ag"/><path d="M405.991 364.299c2.7-1.5 2.7-4.2 0-5.7l-143.5-83.1a11.452 11.452 0 0 0-9.9 0l-13.2 8c-2.7 1.7-2.7 4.2 0 5.9l143.1 82.9a10.809 10.809 0 0 0 9.9 0z" class="ah"/><path d="M405.791 364.299c2.7-1.5 2.7-4 0-5.7l-143.3-83.1a11.452 11.452 0 0 0-9.9 0l-13.2 8c-2.7 1.7-2.7 4.2 0 5.7l142.9 82.7a10.809 10.809 0 0 0 9.9 0z" class="ai"/><path d="M405.591 364.299c2.7-1.5 2.7-4 0-5.7l-143.1-82.9a11.452 11.452 0 0 0-9.9 0l-13.2 7.8c-2.7 1.7-2.7 4.2 0 5.7l142.5 82.7a11.452 11.452 0 0 0 9.9 0z" class="aj"/><path d="M405.591 364.099c2.7-1.5 2.7-4 0-5.7l-142.9-82.7a11.017 11.017 0 0 0-9.7 0l-13 7.8c-2.7 1.7-2.7 4.2 0 5.7l142.3 82.4a11.452 11.452 0 0 0 9.9 0z" class="ak"/><path d="M405.391 364.099c2.7-1.5 2.7-4 0-5.7l-142.7-82.7a11.017 11.017 0 0 0-9.7 0l-13 7.8c-2.7 1.7-2.7 4.2 0 5.7l142.1 82.4a11.017 11.017 0 0 0 9.7 0z" class="al"/><path d="M405.191 364.099c2.7-1.5 2.7-4 0-5.7l-142.5-82.7a11.017 11.017 0 0 0-9.7 0l-13 7.8c-2.7 1.7-2.7 4.2 0 5.7l141.9 82.3a11.017 11.017 0 0 0 9.7 0z" class="am"/><path d="M404.991 363.799c2.7-1.5 2.7-4 0-5.5l-142.3-82.4a11.017 11.017 0 0 0-9.7 0l-13 7.8c-2.7 1.5-2.5 4.2 0 5.7l141.7 82.2a11.017 11.017 0 0 0 9.7 0z" class="an"/><path d="M404.991 363.799c2.7-1.5 2.7-4 0-5.5l-142.1-82.4a11.017 11.017 0 0 0-9.7 0l-12.7 7.8c-2.5 1.5-2.5 4 0 5.7l141.4 82.1a11.017 11.017 0 0 0 9.7 0z" class="ao"/><path d="M404.791 363.599c2.7-1.5 2.7-4 0-5.5l-141.9-82.2a10.38 10.38 0 0 0-9.4 0l-12.8 7.8c-2.5 1.5-2.5 4 0 5.7l141.2 82.1a11.017 11.017 0 0 0 9.7 0z" class="ap"/><path d="M404.591 363.599c2.7-1.5 2.7-4 0-5.5l-141.7-82a10.38 10.38 0 0 0-9.4 0l-12.8 7.6c-2.5 1.5-2.5 4 0 5.7l141 81.8a11.017 11.017 0 0 0 9.7 0z" class="aq"/><path d="M404.391 363.599c2.5-1.5 2.7-4 0-5.5l-141.3-82a10.38 10.38 0 0 0-9.4 0l-12.8 7.6c-2.5 1.5-2.5 4 0 5.5l140.8 81.8a10.38 10.38 0 0 0 9.4 0z" class="ar"/><path d="M404.391 363.399c2.5-1.5 2.5-4 0-5.5l-141.1-81.8a10.38 10.38 0 0 0-9.4 0l-12.8 7.6c-2.5 1.5-2.5 4 0 5.5l140.6 81.6a10.38 10.38 0 0 0 9.4 0z" class="as"/><path d="M404.191 363.399c2.5-1.5 2.5-4 0-5.5l-140.9-81.8a10.38 10.38 0 0 0-9.4 0l-12.6 7.6c-2.5 1.5-2.5 4 0 5.5l140.4 81.6a10.38 10.38 0 0 0 9.4 0z" class="at"/><path d="M403.891 363.399c2.5-1.5 2.5-4 0-5.5l-140.6-81.6a10.38 10.38 0 0 0-9.4 0l-12.6 7.6c-2.5 1.5-2.5 4 0 5.5l140.2 81.4a10.38 10.38 0 0 0 9.4 0z" class="au"/><path d="M403.691 363.199c2.5-1.5 2.5-4 0-5.5l-140.4-81.6a9.967 9.967 0 0 0-9.2 0l-12.6 7.6c-2.5 1.5-2.5 4 0 5.5l140 81.4a10.38 10.38 0 0 0 9.4 0z" class="av"/><path d="M403.691 363.199c2.5-1.5 2.5-3.8 0-5.2l-140.2-81.7a9.967 9.967 0 0 0-9.2 0l-12.6 7.6c-2.5 1.5-2.5 4 0 5.5l139.8 81.2a9.967 9.967 0 0 0 9.2 0z" class="aw"/><path d="M403.491 363.199c2.5-1.5 2.5-3.8 0-5.2l-140-81.7a9.967 9.967 0 0 0-9.2 0l-12.4 7.4c-2.5 1.5-2.5 4 0 5.5l139.6 81.2a9.967 9.967 0 0 0 9.2 0z" class="ax"/><path d="M403.291 362.999c2.5-1.5 2.5-3.8 0-5.2l-139.8-81.3a9.967 9.967 0 0 0-9.2 0l-12.4 7.4c-2.5 1.5-2.5 4 0 5.5l139.1 81a9.967 9.967 0 0 0 9.2 0z" class="ay"/><path d="M403.091 362.999c2.5-1.5 2.5-3.8 0-5.2l-139.6-81.3a9.967 9.967 0 0 0-9.2 0l-12.4 7.4c-2.5 1.5-2.5 4 0 5.5l138.9 81a9.967 9.967 0 0 0 9.2 0z" class="az"/><path d="M403.091 362.999c2.5-1.5 2.5-3.8 0-5.2l-139.3-81.1a9.562 9.562 0 0 0-9 0l-12.5 7.4c-2.5 1.5-2.5 4 0 5.5l138.8 80.5a9.967 9.967 0 0 0 9.2 0z" class="ba"/><path d="M402.891 362.799c2.5-1.5 2.5-3.8 0-5.2l-139.1-81.1a9.562 9.562 0 0 0-9 0l-12.2 7.4c-2.5 1.5-2.5 3.8 0 5.2l138.5 80.8a9.967 9.967 0 0 0 9.2 0z" class="bb"/><path d="M402.691 362.799c2.5-1.5 2.5-3.8 0-5.2l-138.9-80.9a9.562 9.562 0 0 0-9 0l-12.2 7.4c-2.5 1.5-2.5 3.8 0 5.2l138.3 80.6a9.563 9.563 0 0 0 9 0z" class="bc"/><path d="M402.491 362.799c2.5-1.5 2.5-3.8 0-5.2l-138.5-80.9a9.562 9.562 0 0 0-9 0l-12.2 7.4c-2.5 1.5-2.5 3.8 0 5.2l138.1 80.4a9.563 9.563 0 0 0 9 0z" class="bd"/><path d="M402.491 362.599c2.5-1.5 2.5-3.8 0-5.2l-138.3-80.7a9.562 9.562 0 0 0-9 0l-12.2 7.2c-2.5 1.5-2.5 3.8 0 5.2l137.9 80.4a9.563 9.563 0 0 0 9 0z" class="be"/><path d="M402.291 362.599c2.5-1.5 2.5-3.8 0-5.2l-138.1-80.7a9.562 9.562 0 0 0-9 0l-12 7.1c-2.5 1.5-2.5 3.8 0 5.2l137.7 80.2a9.563 9.563 0 0 0 9 0z" class="bf"/><path d="M402.091 362.399c2.5-1.5 2.5-3.8 0-5l-137.9-80.4a9.166 9.166 0 0 0-8.8 0l-12 7.1c-2.5 1.5-2.5 3.8 0 5.2l137.5 80.2a9.563 9.563 0 0 0 9 0z" class="bg"/><path d="M401.791 362.399c2.5-1.5 2.5-3.8 0-5l-137.6-80.4a9.166 9.166 0 0 0-8.8 0l-12 7.1c-2.5 1.5-2.3 3.8 0 5.2l137.3 80a9.166 9.166 0 0 0 8.8 0z" class="bh"/><path d="M401.791 362.399c2.5-1.5 2.5-3.8 0-5l-137.4-80.2a9.166 9.166 0 0 0-8.8 0l-12 7.1c-2.5 1.5-2.3 3.8 0 5.2l137 80a9.166 9.166 0 0 0 8.8 0z" class="bi"/><path d="M401.591 362.199c2.5-1.5 2.5-3.6 0-5l-137.2-80.2a9.166 9.166 0 0 0-8.8 0l-11.8 7.1c-2.3 1.5-2.3 3.8 0 5.2l136.8 79.8a9.166 9.166 0 0 0 8.8 0z" class="bj"/><path d="M401.391 362.199c2.5-1.5 2.5-3.6 0-5l-137-80a9.166 9.166 0 0 0-8.8 0l-11.8 6.9c-2.3 1.5-2.3 3.8 0 5l136.6 79.8a9.166 9.166 0 0 0 8.8 0z" class="bk"/><path d="M401.191 362.199c2.3-1.5 2.5-3.6 0-5l-136.8-80c-2.3-1.5-6.3-1.3-8.6 0l-11.8 6.9c-2.3 1.5-2.3 3.8 0 5l136.4 79.5a9.166 9.166 0 0 0 8.8 0z" class="bl"/><path d="M401.191 361.999c2.3-1.5 2.3-3.6 0-5l-136.6-79.8c-2.3-1.5-6.3-1.3-8.6 0l-11.8 6.9c-2.3 1.5-2.3 3.8 0 5l136 79.5a9.166 9.166 0 0 0 8.8 0z" class="bm"/><path d="M400.991 361.999c2.3-1.3 2.3-3.6 0-5l-136.4-79.8c-2.3-1.5-6.3-1.3-8.6 0l-11.6 6.9c-2.3 1.5-2.3 3.8 0 5l135.8 79.3a8.78 8.78 0 0 0 8.6 0z" class="bn"/><path d="M405.191 361.997c2.7-1.5 2.7-4.2 0-5.7l-140.8-81.2a11.452 11.452 0 0 0-9.9 0l-13.2 8c-2.7 1.7-2.7 4.2 0 5.9l140.2 81a10.809 10.809 0 0 0 9.9 0z" class="bo"/><path d="M405.191 360.497c2.7-1.5 2.7-4.2 0-5.7l-140.8-81.2a11.452 11.452 0 0 0-9.9 0l-13.2 8c-2.7 1.7-2.7 4.2 0 5.9l140.2 81a10.809 10.809 0 0 0 9.9 0z" class="bp"/><path d="M400.191 352.097l-9 5.3-2.1-1 9-5.2zm-10.9-6.3l-6.1 3.6-2.1-1.3 6.1-3.6zm-11.2-6.3l-6.1 3.6-1.9-1.3 6.1-3.6zm-10.9-6.3l-6.1 3.4-1.9-1 5.9-3.6zm-10.9-6.5l-9 5.2-1.9-1 8.8-5.2zm-10.9-6.3l-6.1 3.6-2.1-1.3 6.1-3.6zm-10.9-6.3l-6.3 3.6-1.9-1.3 6.1-3.6zm-11.1-6.3l-6.1 3.4-1.9-1 5.9-3.6zm-11-6.5l-9 5.3-1.9-1 8.8-5.2zm-10.9-6.3l-6.1 3.6-2.1-1.3 6.1-3.6zm-10.9-6.3l-6.1 3.6-2.1-1.3 6.1-3.6zm-11.1-6.3l-6.1 3.4-1.9-1 5.9-3.6zm-10.9-6.5l-9 5.2-1.9-1 8.8-5.2z" class="bn"/></svg>