<svg xmlns="http://www.w3.org/2000/svg" viewBox="0 0 93 93" width="93" height="93"><defs><style>.a{fill:#1a171b}.b{fill:#fff}</style></defs><g transform="translate(0 -.827)"><circle cx="46.5" cy="46.5" r="46.5" class="a" transform="translate(0 .827)"/><path d="M66.738 18.009c-4.718.165-8.835 2.765-11.9 6.361a40.1 40.1 0 0 0-7.278 13.395c-2.91-2.385-5.155-5.472-9.824-6.819a12.009 12.009 0 0 0-10.884 1.989 9.762 9.762 0 0 0-3.329 4.85c-1.4 4.554 1.472 8.608 2.777 10.063l2.853 3.057a4.333 4.333 0 0 1 1.312 4.406 5.266 5.266 0 0 1-6.7 3.086c-1.346-.411-3.28-1.414-2.847-2.826a13.17 13.17 0 0 1 .814-1.509 7.076 7.076 0 0 0 .362-.94c.551-1.8-.2-4.138-2.128-4.732-1.8-.551-3.635-.114-4.348 2.2-.808 2.628.449 7.4 7.187 9.476 7.894 2.425 14.571-1.873 15.518-7.479.6-3.511-.989-6.119-3.893-9.474l-2.369-2.614a4.315 4.315 0 0 1-.442-5.749c1.252-1.582 3.035-2.258 5.955-1.464 4.262 1.157 6.162 4.115 9.333 6.5-1.309 4.294-2.164 8.6-2.939 12.468l-.472 2.881c-2.266 11.887-4 18.414-8.492 22.161a7.277 7.277 0 0 1-4.152 1.675 1.194 1.194 0 0 1-1.368-.979c-.024-.718.581-1.047.983-1.371a2.488 2.488 0 0 0 1.448-2.612 3.941 3.941 0 0 0-4.234-3.76 4.909 4.909 0 0 0-4.553 4.979c.11 3.284 3.171 5.745 7.785 5.589 2.467-.085 7.975-1.089 13.4-7.542 6.318-7.4 8.085-15.877 9.414-22.084l1.484-8.192c.824.1 1.706.165 2.664.187 7.869.166 11.805-3.91 11.864-6.875.039-1.794-1.177-3.56-2.88-3.52a3.286 3.286 0 0 0-3.118 2.531c-.359 1.654 2.5 3.146.266 4.6-1.59 1.029-4.44 1.754-8.453 1.165l.73-4.034c1.494-7.654 3.327-17.065 10.3-17.294.508-.026 2.366.023 2.41 1.252.013.411-.089.515-.57 1.455a3.333 3.333 0 0 0-.651 2.073 3.265 3.265 0 0 0 3.7 3.159c2.876-.093 3.7-2.893 3.656-4.331-.116-3.379-3.677-5.513-8.392-5.358z" class="b"/></g></svg>