<svg xmlns="http://www.w3.org/2000/svg" viewBox="0 0 31.91 27" width="31.91" height="27"><defs><style>.a{fill:#1da1f2}.b{fill:#fff}</style></defs><g transform="translate(-1031.091 -2718)"><rect width="31.91" height="27" class="a" rx="3" transform="translate(1031.091 2718)"/><path d="M1053.699 2728.619c.011.143.011.286.011.428a9.313 9.313 0 0 1-9.376 9.377 9.312 9.312 0 0 1-5.062-1.479 6.887 6.887 0 0 0 .8.041 6.6 6.6 0 0 0 4.092-1.408 3.3 3.3 0 0 1-3.082-2.285 4.2 4.2 0 0 0 .618.052 3.506 3.506 0 0 0 .868-.112 3.3 3.3 0 0 1-2.642-3.237v-.041a3.325 3.325 0 0 0 1.489.418 3.3 3.3 0 0 1-1.021-4.407 9.374 9.374 0 0 0 6.8 3.449 3.745 3.745 0 0 1-.082-.755 3.3 3.3 0 0 1 5.7-2.255 6.51 6.51 0 0 0 2.091-.8 3.289 3.289 0 0 1-1.45 1.82 6.605 6.605 0 0 0 1.9-.511 7.073 7.073 0 0 1-1.654 1.705z" class="b"/></g></svg>