<svg xmlns="http://www.w3.org/2000/svg" viewBox="0 0 31.91 27" width="31.91" height="27"><defs><style>.a{fill:red}.b{fill:#fff}</style></defs><g transform="translate(-1071 -2718)"><rect width="31.91" height="27" class="a" rx="3" transform="translate(1071 2718)"/><path d="M1095.042 2727.982a2.05 2.05 0 0 0-1.442-1.445 47.968 47.968 0 0 0-6.407-.355 49.741 49.741 0 0 0-6.407.331 2.1 2.1 0 0 0-1.445 1.454 21.68 21.68 0 0 0-.341 3.939 21.547 21.547 0 0 0 .332 3.939 2.05 2.05 0 0 0 1.442 1.444 48.059 48.059 0 0 0 6.406.358 49.855 49.855 0 0 0 6.407-.33 2.058 2.058 0 0 0 1.446-1.442 21.583 21.583 0 0 0 .341-3.937 20.523 20.523 0 0 0-.332-3.956zm-9.488 6.386v-4.909l4.26 2.459z" class="b"/></g></svg>